# xmcd CD database file
#
# Track frame offsets:
#	150
#	22811
#	43172
#	65168
#	86895
#	108158
#	128689
#	149178
#	171023
#	191318
#
# Disc length: 2802 seconds
#
# Revision: 0
# Processed by: cddbd v1.5.1PL0 Copyright (c) Steve Scherf et al.
# Submitted via: CDex 1.51
#
DISCID=8b0af00a
DTITLE=Steve Briody - Steve Briody
DYEAR=2003
DGENRE=Jazz
TTITLE0=Orchard Walk
TTITLE1=Thinking Time
TTITLE2=King's Groove
TTITLE3=Wave Goodbye
TTITLE4=Eleventh Hour
TTITLE5=You Don't Know
TTITLE6=6 AM
TTITLE7=Mystery Machine
TTITLE8=Once Again
TTITLE9=Let It Went
EXTD=YEAR: 2003
EXTT0=
EXTT1=
EXTT2=
EXTT3=
EXTT4=
EXTT5=
EXTT6=
EXTT7=
EXTT8=
EXTT9=
PLAYORDER=
